<svg width="40" height="61" viewBox="0 0 40 61" fill="none" xmlns="http://www.w3.org/2000/svg">
<g clip-path="url(#clip0_1905_3)">
<path d="M11.2246 15.9104C11.2246 15.9104 8.04211 52.2887 31.6403 52.0515L31.1655 58.4573H8.06728L5.16278 15.9104H11.2246Z" fill="#C44415"/>
<path d="M37.7044 7.29007H36.1525L35.435 2.20123C35.3711 1.74825 35.146 1.33362 34.8011 1.03361C34.4561 0.733594 34.0146 0.56838 33.5577 0.568359H6.14995C5.69304 0.568358 5.2515 0.733587 4.90659 1.03364C4.56168 1.33369 4.33662 1.74838 4.27281 2.20138L3.55531 7.29022H2.00323C0.956379 7.29007 0.107666 8.14 0.107666 9.18817L0.107666 15.7524C0.107666 16.8005 0.956379 17.6503 2.00323 17.6503H3.15229L5.87769 58.5834C5.9443 59.5806 6.77137 60.3554 7.7691 60.3554H31.9382C32.936 60.3554 33.7631 59.5806 33.8297 58.5834L36.5551 17.6503H37.7041C38.751 17.6503 39.5997 16.8005 39.5997 15.7524V9.18817C39.6 8.14 38.7513 7.29007 37.7044 7.29007ZM3.89894 13.8544V11.0861H35.8089V13.8544H3.89894ZM7.79658 4.3644H31.9111L32.3235 7.29022H7.38419L7.79658 4.3644ZM9.54265 56.5593L8.54216 41.5333H12.9364C14.6669 43.53 17.1845 44.6959 19.8538 44.6959C22.5232 44.6959 25.0408 43.53 26.7717 41.5333H31.1655L30.165 56.5593H9.54265ZM31.385 37.7374H25.8453C25.5377 37.7374 25.2348 37.8124 24.9626 37.9559C24.6904 38.0993 24.4571 38.3069 24.2829 38.5607C23.2781 40.0255 21.6223 40.8998 19.854 40.8998C18.0856 40.8998 16.4303 40.0255 15.4259 38.5607C15.2517 38.3068 15.0184 38.0992 14.7461 37.9558C14.4738 37.8123 14.1708 37.7374 13.8631 37.7374H8.32284L8.06731 33.3079H13.8625C14.4868 33.3079 15.0713 33.0003 15.4249 32.4846C16.4297 31.0198 18.0855 30.1455 19.8538 30.1455C21.6222 30.1455 23.278 31.0198 24.2828 32.4846C24.4569 32.7385 24.6901 32.9461 24.9623 33.0896C25.2346 33.233 25.5375 33.308 25.8452 33.3079H31.6404L31.385 37.7374ZM31.9659 29.5119H26.7717C25.0408 27.5151 22.5232 26.3493 19.8538 26.3493C17.1845 26.3493 14.6669 27.5151 12.936 29.5119H7.74179L6.95201 17.6503H32.7558L31.9659 29.5119Z" fill="#ffffff"/>
</g>
<defs>
<clipPath id="clip0_1905_3">
<rect width="39.4923" height="59.787" fill="white" transform="translate(0.107666 0.568359)"/>
</clipPath>
</defs>
</svg>
