<svg width="24" height="24" viewBox="0 0 24 24" fill="none" xmlns="http://www.w3.org/2000/svg">
<path d="M13 5.64901C10.158 2.80701 6.20797 2.14901 4.17797 4.17901M4.17797 4.17901C2.14797 6.20901 2.80697 10.158 5.64797 13M4.17797 4.17901C4.42297 5.40501 5.72197 8.07401 8.95797 8.95601M9.21097 19.789C11.297 21.875 15.357 21.199 18.278 18.278C21.198 15.357 21.875 11.298 19.788 9.21101C18.53 9.46201 15.784 10.797 14.877 14.121C13.582 18.871 10.721 19.284 9.20997 19.788M9.21197 19.79C7.12597 17.703 7.80197 13.644 10.723 10.723C13.644 7.80301 17.703 7.12601 19.79 9.21301" stroke="black" stroke-width="1.5" stroke-linecap="round" stroke-linejoin="round"/>
</svg>
