<svg xmlns:inkscape="http://www.inkscape.org/namespaces/inkscape" xmlns:sodipodi="http://sodipodi.sourceforge.net/DTD/sodipodi-0.dtd" xmlns="http://www.w3.org/2000/svg" xmlns:svg="http://www.w3.org/2000/svg" xmlns:rdf="http://www.w3.org/1999/02/22-rdf-syntax-ns#" xmlns:cc="http://creativecommons.org/ns#" xmlns:dc="http://purl.org/dc/elements/1.1/" viewBox="0 0 16.933333 21.1666675" version="1.1" x="0px" y="0px"><g><path style="color:#000000;" d="m 4.7002288,0.79194043 -0.070279,0.15813 -0.8728154,1.98592597 h -0.902787 v 0.265618 1.800923 H 3.5411263 L 4.4837044,16.141393 H 12.452211 L 13.393757,5.0025374 h 0.685229 V 2.9359964 H 13.178265 L 12.235171,0.79194043 Z M 5.0438776,1.3211064 h 6.8455774 l 0.709002,1.61489 H 4.3348763 Z M 3.3840299,3.4656784 H 13.549819 v 1.007693 H 3.3840299 Z m 0.6852312,1.536859 h 8.7948109 l -0.159679,1.884638 H 4.2294583 Z m 0.2051552,2.414323 H 12.659433 L 12.170059,13.197904 H 4.7648242 Z m 4.5273727,0.923457 c -0.2135028,0.0033 -0.4291912,0.05235 -0.6330367,0.139009 -0.4348613,0.18487 -0.8301091,0.537813 -1.1053604,1.015442 -0.2752593,0.477628 -0.3816006,0.9976626 -0.3240114,1.4670936 0.057602,0.469435 0.2886101,0.899213 0.6950498,1.134298 0.4064291,0.235085 0.8952812,0.222076 1.3301504,0.03721 C 9.1994419,11.948501 9.5946791,11.595555 9.869941,11.117927 10.14519,10.640298 10.254124,10.120265 10.196535,9.6508324 10.138935,9.1813984 9.9053423,8.7516194 9.4989026,8.5165354 9.2829867,8.3916464 9.0437558,8.3365734 8.801789,8.3403174 Z m 0.030488,0.528135 c 0.086275,7.27e-4 0.1694206,0.0141 0.2480468,0.03927 -0.068935,0.30099 -0.2605378,0.899636 -0.7296705,1.1709876 -0.558583,0.323088 -0.8157713,0.882605 -0.9327594,1.283645 -0.08023,-0.129022 -0.1330431,-0.28589 -0.15503,-0.46509 -0.041899,-0.341246 0.037947,-0.752547 0.259416,-1.1368806 0.2214907,-0.384334 0.5380435,-0.65853 0.853694,-0.792716 0.1578213,-0.0671 0.3116633,-0.100443 0.4563031,-0.09922 z m 0.7043499,0.418578 c 0.068466,0.121476 0.1143556,0.265359 0.1343581,0.428398 C 9.712884,10.056675 9.634639,10.470042 9.4131194,10.854378 9.1916314,11.238709 8.8735255,11.512905 8.557875,11.647093 8.3170486,11.749474 8.085181,11.772794 7.8814306,11.715823 7.9492986,11.418195 8.1407752,10.811432 8.6142021,10.537601 9.1572567,10.223493 9.4151752,9.6857374 9.5366269,9.2870304 Z M 4.8097848,13.72552 h 7.3158322 l -0.159681,1.886707 H 4.9699795 Z" fill="#000000" stroke-width="1"/></g><text x="0" y="31.933334" fill="#000000" font-size="5px" font-weight="bold" font-family="'Helvetica Neue', Helvetica, Arial-Unicode, Arial, Sans-serif">Created by Larea</text><text x="0" y="36.933334" fill="#000000" font-size="5px" font-weight="bold" font-family="'Helvetica Neue', Helvetica, Arial-Unicode, Arial, Sans-serif">from the Noun Project</text></svg>