<svg xmlns:inkscape="http://www.inkscape.org/namespaces/inkscape" xmlns:sodipodi="http://sodipodi.sourceforge.net/DTD/sodipodi-0.dtd" xmlns="http://www.w3.org/2000/svg" xmlns:svg="http://www.w3.org/2000/svg" xmlns:rdf="http://www.w3.org/1999/02/22-rdf-syntax-ns#" xmlns:cc="http://creativecommons.org/ns#" xmlns:dc="http://purl.org/dc/elements/1.1/" viewBox="0 0 16.933333 21.1666675" version="1.1" x="0px" y="0px"><g><path style="color:#000000;" d="m 4.7536908,0.51472989 v 0 a 0.26458294,0.26458294 0 0 0 -0.2753,0.2534 0.26458294,0.26458294 0 0 0 0.2534,0.27530001 c 0.2435,0.01 0.4613,0.1885 0.53,0.4639 0.069,0.2755 -0.042,0.5654 -0.2537,0.7086 -0.4088,0.2754 -0.5926,0.7902 -0.4716,1.2754 0.121,0.4851 0.5322,0.8451 1.0218,0.8645 a 0.26458294,0.26458294 0 0 0 0.2749,-0.2538 0.26458294,0.26458294 0 0 0 -0.2539,-0.2749 c -0.2427,-0.01 -0.4607,-0.1884 -0.5294,-0.4639 -0.069,-0.2755 0.042,-0.5656 0.2539,-0.7086 a 0.26460939,0.26460939 0 0 0 10e-5,-1e-4 c 0.4086,-0.2755 0.5924,-0.7901 0.4714,-1.2752 -0.121,-0.48530001 -0.5326,-0.84430001 -1.0216,-0.86460001 z m 3.0179,0 v 0 a 0.26458294,0.26458294 0 0 0 -0.2753,0.2534 0.26458294,0.26458294 0 0 0 0.2534,0.27530001 c 0.2435,0.01 0.4614,0.1885 0.5301,0.4639 0.069,0.2755 -0.042,0.5654 -0.2538,0.7086 -0.4087,0.2754 -0.5926,0.7902 -0.4716,1.2754 0.121,0.4851 0.5322,0.8451 1.0219,0.8645 a 0.26458294,0.26458294 0 0 0 0.2748,-0.2538 0.26458294,0.26458294 0 0 0 -0.2538,-0.2749 c -0.2428,-0.01 -0.4607,-0.1884 -0.5294,-0.4639 -0.069,-0.2755 0.042,-0.5656 0.2539,-0.7086 a 0.26460939,0.26460939 0 0 0 10e-5,-1e-4 c 0.4085,-0.2755 0.5923,-0.7901 0.4713,-1.2752 -0.121,-0.48530001 -0.5325,-0.84430001 -1.0216,-0.86460001 z m 3.0180002,0 v 0 a 0.26458294,0.26458294 0 0 0 -0.2753,0.2534 0.26458294,0.26458294 0 0 0 0.2534,0.27530001 c 0.2435,0.01 0.4614,0.1885 0.5301,0.4639 0.069,0.2755 -0.042,0.5654 -0.2538,0.7086 -0.4087,0.2754 -0.5926,0.7902 -0.4716,1.2754 0.121,0.4851 0.5322,0.8451 1.0218,0.8645 a 0.26458294,0.26458294 0 0 0 0.2749,-0.2538 0.26458294,0.26458294 0 0 0 -0.2539,-0.2749 c -0.2427,-0.01 -0.4606,-0.1884 -0.5293,-0.4639 -0.069,-0.2755 0.042,-0.5656 0.2538,-0.7086 a 0.26460939,0.26460939 0 0 0 10e-5,-1e-4 c 0.4086,-0.2755 0.5924,-0.7901 0.4714,-1.2752 -0.121,-0.48530001 -0.5325,-0.84430001 -1.0216,-0.86460001 z M 3.2934908,5.5400299 a 0.26460939,0.26460939 0 0 0 -0.2645,0.2645 v 3.8864 c 0,0.7160001 0.1454,1.3985001 0.4082,2.0179001 -0.031,0.047 -0.06,0.095 -0.089,0.1445 -0.2976,0.5165 -0.4155,1.0775 -0.3561,1.5826 0.038,0.3233 0.153,0.6283 0.3443,0.8717 h -2.2781 a 0.26460939,0.26460939 0 0 0 -0.26159997,0.304 c 0.1544,1.0247 1.03939997,1.8072 2.10559997,1.8072 H 13.987591 c 1.0663,0 1.9513,-0.7825 2.1056,-1.8072 a 0.26460939,0.26460939 0 0 0 -0.2616,-0.304 h -5.3804 c 1.1499,-0.5674 2.0557,-1.5516 2.5217,-2.7567 1.7633,-0.079 3.1667,-1.5316 3.1667,-3.3148001 v -1.1538 a 0.26460939,0.26460939 0 0 0 -0.2646,-0.2646 h -2.5567 v -1.0132 a 0.26460939,0.26460939 0 0 0 -0.2646,-0.2645 z m 0.2646,0.5291 h 9.2312002 v 1.0105 a 0.26460939,0.26460939 0 0 0 -2e-4,0 v 0.082 H 3.5580908 Z m 9.7604002,1.2778 h 2.2921 v 0.8892 c 0,1.4388 -1.0679,2.6091001 -2.4605,2.7697001 0.023,-0.089 0.044,-0.1792 0.063,-0.27 0,0 0,-0.01 0,-0.015 0.01,-0.038 0.015,-0.077 0.022,-0.1153 0,-0.01 0,-0.011 0,-0.016 0.01,-0.03 0.01,-0.061 0.015,-0.091 0,-0.014 0,-0.029 0.01,-0.043 0,-0.029 0.01,-0.059 0.012,-0.088 0,-0.02 0,-0.04 0.01,-0.059 0,-0.017 0,-0.035 0.01,-0.052 0,-0.02 0,-0.04 0.01,-0.061 0,-0.028 0.01,-0.056 0.01,-0.084 0,-0.022 0,-0.045 0,-0.067 9e-4,-0.013 0,-0.025 0,-0.038 0,-0.039 0,-0.079 0.01,-0.1179001 4e-4,-0.011 9e-4,-0.022 0,-0.033 7e-4,-0.023 0,-0.046 0,-0.069 2e-4,-0.012 3e-4,-0.025 5e-4,-0.037 2e-4,-0.019 7e-4,-0.039 7e-4,-0.058 z m -9.7604002,0.3463 h 9.2310002 v 1.9975 c 0,0.062 0,0.1241 0,0.1857 -3e-4,0.01 -5e-4,0.012 -7e-4,0.018 0,0.027 0,0.053 0,0.08 -5e-4,0.01 0,0.017 0,0.026 0,0.026 0,0.052 -0.01,0.077 -7e-4,0.01 0,0.017 0,0.026 -0.01,0.08 -0.016,0.1596 -0.027,0.2384 0,0.013 0,0.025 -0.01,0.037 0,0.02 -0.01,0.039 -0.01,0.059 0,0.016 -0.01,0.031 -0.01,0.047 0,0.019 -0.01,0.037 -0.01,0.055 0,0.017 -0.01,0.034 -0.01,0.051 0,0.017 -0.01,0.035 -0.011,0.052 0,0.018 -0.01,0.036 -0.012,0.054 0,0.016 -0.01,0.032 -0.011,0.049 -0.01,0.025 -0.012,0.049 -0.018,0.074 -0.01,0.025 -0.013,0.05 -0.02,0.075 0,0.015 -0.01,0.03 -0.012,0.045 -0.01,0.02 -0.011,0.041 -0.017,0.061 0,0.012 -0.01,0.023 -0.01,0.035 -0.01,0.023 -0.014,0.045 -0.021,0.068 0,0.01 0,0.015 -0.01,0.022 -0.01,0.026 -0.017,0.052 -0.026,0.077 a 0.26460939,0.26460939 0 0 0 -10e-5,3e-4 c -0.6219,1.8117 -2.3327,3.103 -4.3632002,3.1036 v 0 c -0.7207,-2e-4 -1.3998,-0.1635 -2.0051,-0.4548 0.062,-0.085 0.12,-0.1738 0.174,-0.2674 0.2975,-0.5166 0.4154,-1.0775 0.3561,-1.5826 -0.059,-0.5052 -0.3063,-0.9656 -0.7394,-1.2163 -0.4331,-0.2506 -0.9544,-0.2347 -1.4205,-0.034 -0.2554,0.1102 -0.4986,0.2751 -0.7153,0.4865 -0.1709,-0.4833 -0.2643,-1.0039 -0.2643,-1.5484001 z m 1.6929,3.4348001 c 0.1388,8e-4 0.27,0.03 0.3895,0.089 -0.3321,0.2297 -0.9136,0.7325 -1.0555,1.5103 -0.108,0.5924 -0.6259,1.0174 -0.8789,1.1933 -0.099,-0.1481 -0.1637,-0.3326 -0.1888,-0.5457 -0.044,-0.3769 0.045,-0.8319 0.2891,-1.2562 0.039,-0.068 0.081,-0.1335 0.1257,-0.1955 a 0.26458294,0.26458294 0 0 0 0.04,-0.054 c 0.2242,-0.2951 0.4999,-0.5109 0.7752,-0.6296 0.1739,-0.075 0.3439,-0.1122 0.5038,-0.1113 z m 0.7803,0.4689 c 0.072,0.1331 0.1204,0.2903 0.1412,0.4672 0.044,0.3769 -0.045,0.832 -0.2891,1.2562 -0.09,0.1562 -0.194,0.2961 -0.3069,0.4181 -0.193,0.2074 -0.4117,0.3625 -0.63,0.4567 -0.144,0.062 -0.2853,0.098 -0.4204,0.1083 h -0.1536 c -0.077,-0.01 -0.151,-0.021 -0.2217,-0.045 0.338,-0.2541 0.8299,-0.7337 0.9587,-1.4405 0.1154,-0.6326 0.6973,-1.0735 0.9257,-1.2249 z m -0.2296,2.6645 c 0.03,0.016 0.061,0.031 0.091,0.046 h -0.1432 c 0.017,-0.015 0.035,-0.031 0.052,-0.046 z m -4.4038,0.5754 h 2.9774 c 0.046,0 0.092,0 0.1382,0 H 15.492391 c -0.2216,0.6155 -0.8062,1.0528 -1.5046,1.0528 H 2.9024908 c -0.6983,0 -1.283,-0.4373 -1.5046,-1.0528 z" fill="#000000" stroke-width="0.00909585" stroke-linecap="round" stroke-linejoin="round"/></g><text x="0" y="31.933334" fill="#000000" font-size="5px" font-weight="bold" font-family="'Helvetica Neue', Helvetica, Arial-Unicode, Arial, Sans-serif">Created by Alzam</text><text x="0" y="36.933334" fill="#000000" font-size="5px" font-weight="bold" font-family="'Helvetica Neue', Helvetica, Arial-Unicode, Arial, Sans-serif">from the Noun Project</text></svg>