<svg width="372" height="80" viewBox="0 0 372 80" fill="none" xmlns="http://www.w3.org/2000/svg">
<path d="M58.512 63.512C53.9467 63.5973 50.0213 62.6267 46.736 60.6C43.4507 58.552 40.9547 55.672 39.248 51.96C37.5413 48.2267 36.7307 43.8853 36.816 38.936C36.9227 33.4533 37.968 28.9627 39.952 25.464C41.936 21.944 44.6133 19.3307 47.984 17.624C51.3547 15.9173 55.1733 15.0213 59.44 14.936C63.8133 14.8507 67.5893 15.8 70.768 17.784C73.968 19.7467 76.4107 22.5627 78.096 26.232C79.8027 29.88 80.6027 34.1893 80.496 39.16C80.3893 44.6427 79.3867 49.176 77.488 52.76C75.5893 56.3227 73.008 58.9893 69.744 60.76C66.48 62.5093 62.736 63.4267 58.512 63.512ZM58.704 56.152C62.2667 56.152 65.0933 54.7547 67.184 51.96C69.2747 49.1653 70.32 44.792 70.32 38.84C70.32 35.7253 69.904 32.9307 69.072 30.456C68.2613 27.9813 67.0347 26.0293 65.392 24.6C63.7493 23.1493 61.6907 22.424 59.216 22.424C56.9973 22.424 54.96 22.9787 53.104 24.088C51.2693 25.1973 49.7973 26.9893 48.688 29.464C47.5787 31.9387 47.024 35.224 47.024 39.32C47.024 42.456 47.4613 45.2933 48.336 47.832C49.2107 50.3707 50.512 52.3973 52.24 53.912C53.968 55.4053 56.1227 56.152 58.704 56.152ZM88.719 63V15.448H97.999L115.823 43.576L122.031 55.96H119.823L118.383 39.992V15.448H127.535V63H117.615L100.591 35.736L93.455 21.656H96.143L97.807 38.968V63H88.719ZM138.219 63V15.448H167.243V23H148.203V34.936H162.635V42.328H148.203V55.288H169.259V63H138.219ZM188.727 63V15.384L193.559 15.448C194.625 15.448 195.713 15.416 196.823 15.352C197.932 15.2667 199.127 15.192 200.407 15.128C201.687 15.0427 203.127 15 204.727 15C208.801 15 212.108 15.4907 214.647 16.472C217.207 17.432 219.073 18.7973 220.247 20.568C221.42 22.3387 222.007 24.4293 222.007 26.84C222.007 28.44 221.74 29.9867 221.207 31.48C220.695 32.952 219.905 34.232 218.839 35.32C217.772 36.408 216.428 37.176 214.807 37.624C216.684 37.816 218.369 38.4133 219.863 39.416C221.356 40.3973 222.54 41.688 223.415 43.288C224.289 44.8667 224.727 46.648 224.727 48.632C224.727 51.5333 224.14 54.0933 222.967 56.312C221.815 58.5307 219.82 60.28 216.983 61.56C214.167 62.8187 210.241 63.448 205.207 63.448C203.159 63.448 201.047 63.384 198.871 63.256C196.716 63.1493 195.009 63.064 193.751 63H188.727ZM198.679 35.192C199.063 35.256 199.521 35.3093 200.055 35.352C200.588 35.3733 201.143 35.3947 201.719 35.416C202.316 35.416 202.871 35.416 203.383 35.416C203.916 35.416 204.385 35.416 204.791 35.416C207.18 35.416 209.036 34.8293 210.359 33.656C211.703 32.4827 212.375 30.5627 212.375 27.896C212.375 25.72 211.607 24.1627 210.071 23.224C208.556 22.2853 206.359 21.816 203.479 21.816C203.159 21.816 202.657 21.8373 201.975 21.88C201.292 21.9013 200.631 21.944 199.991 22.008C199.351 22.0507 198.913 22.1253 198.679 22.232V35.192ZM198.679 55.96C198.977 56.152 199.511 56.3013 200.279 56.408C201.068 56.5147 201.911 56.5893 202.807 56.632C203.703 56.6747 204.503 56.696 205.207 56.696C208.236 56.696 210.551 56.12 212.151 54.968C213.751 53.7947 214.551 51.8107 214.551 49.016C214.551 46.6053 213.793 44.8133 212.279 43.64C210.785 42.4667 208.385 41.88 205.079 41.88C204.609 41.88 204.065 41.88 203.447 41.88C202.849 41.88 202.231 41.8907 201.591 41.912C200.972 41.9333 200.407 41.9547 199.895 41.976C199.383 41.9973 198.977 42.04 198.679 42.104V55.96ZM242.673 63H232.657V15.448C233.083 15.448 233.499 15.448 233.905 15.448C234.331 15.448 234.747 15.448 235.153 15.448C235.579 15.448 236.006 15.448 236.433 15.448C238.054 15.448 239.942 15.3627 242.097 15.192C244.251 15.0213 246.833 14.936 249.841 14.936C252.059 14.936 254.193 15.1813 256.241 15.672C258.289 16.1413 260.113 16.9307 261.713 18.04C263.334 19.128 264.614 20.6 265.553 22.456C266.491 24.312 266.961 26.616 266.961 29.368C266.961 32.4613 266.449 35.032 265.425 37.08C264.401 39.1067 262.961 40.696 261.104 41.848C259.27 42.9787 257.115 43.736 254.641 44.12C253.787 44.248 252.923 44.376 252.049 44.504C251.174 44.6107 250.022 44.7067 248.593 44.792C247.163 44.856 245.19 44.888 242.673 44.888V63ZM242.673 37.848C243.121 37.912 243.75 37.9653 244.561 38.008C245.371 38.0507 246.193 38.072 247.025 38.072C247.878 38.072 248.561 38.072 249.073 38.072C251.782 38.072 253.809 37.3147 255.153 35.8C256.518 34.264 257.201 32.2053 257.201 29.624C257.201 28.1733 256.945 26.8827 256.433 25.752C255.942 24.6 255.067 23.704 253.809 23.064C252.55 22.4027 250.79 22.072 248.529 22.072C247.526 22.072 246.513 22.1253 245.489 22.232C244.465 22.3173 243.526 22.456 242.673 22.648V37.848ZM259.121 63C258.843 62.6373 258.598 62.232 258.385 61.784C258.193 61.3147 257.862 60.568 257.393 59.544C256.731 58.1147 256.113 56.568 255.537 54.904C254.982 53.24 254.395 51.6507 253.777 50.136C253.158 48.6213 252.443 47.3627 251.633 46.36C250.822 45.3573 249.841 44.8133 248.689 44.728L251.505 42.52L257.745 42.104C258.961 42.6373 260.027 43.5547 260.944 44.856C261.883 46.136 262.737 47.6187 263.505 49.304C264.294 50.9893 265.062 52.728 265.809 54.52C266.577 56.312 267.398 57.976 268.273 59.512C268.593 60.1093 268.913 60.696 269.233 61.272C269.574 61.848 269.905 62.424 270.225 63H259.121ZM277.094 63V15.448H306.118V23H287.078V34.936H301.51V42.328H287.078V55.288H308.134V63H277.094ZM323.236 63.416L310.532 15.448H320.612L326.596 43.64L328.676 57.752H327.492L329.796 43.64L337.06 15.448H345.7L353.156 43.64L355.78 57.816H354.436L356.484 43.64L362.18 15.448H371.972L359.524 63.416H349.668L342.5 36.184L339.684 18.872H342.436L339.844 36.184L332.676 63.416H323.236Z" fill="hsl(28 15% 15%)"/>
<g clip-path="url(#clip0_1905_6)">
<path d="M12.9327 30.6953C12.9327 30.6953 19.6869 60.9558 38.7263 54.7117L39.9849 60.0182L21.2893 65.9423L8.02637 32.25L12.9327 30.6953Z" fill="hsl(16 70% 60%)" />
<path d="M32.1545 16.9267L30.8984 17.3247L29.0125 13.3898C28.8446 13.0396 28.556 12.7617 28.1999 12.6074C27.8438 12.453 27.444 12.4325 27.0742 12.5497L4.89058 19.579C4.52076 19.6962 4.20576 19.9431 4.00355 20.2745C3.80134 20.6058 3.72552 20.9992 3.79006 21.3822L4.51447 25.6851L3.25822 26.0831C2.41087 26.3515 1.94191 27.2571 2.21074 28.1055L3.89427 33.4185C4.16309 34.2669 5.06798 34.737 5.91529 34.4685L6.84533 34.1738L19.5494 66.6058C19.8591 67.3958 20.7272 67.8108 21.5348 67.5549L41.0971 61.3562C41.9047 61.1003 42.3754 60.2611 42.1736 59.4369L33.8813 25.607L34.8113 25.3123C35.6587 25.0438 36.1277 24.1383 35.8588 23.2899L34.1753 17.9769C33.9067 17.1284 33.0018 16.6582 32.1545 16.9267ZM6.47613 30.91L5.76614 28.6693L31.5938 20.4853L32.3038 22.726L6.47613 30.91ZM7.19693 22.2292L26.715 16.0445L27.7992 18.3069L7.61354 24.7031L7.19693 22.2292ZM21.9967 64.0275L17.3332 52.1222L20.8899 50.9952C22.8026 52.1675 25.1393 52.4655 27.2999 51.7809C29.4604 51.0962 31.1992 49.5069 32.088 47.4468L35.6443 46.3199L38.6883 58.7385L21.9967 64.0275ZM34.8484 43.1913L30.3647 44.612C30.1157 44.691 29.8897 44.8294 29.7062 45.0153C29.5227 45.2012 29.3872 45.429 29.3113 45.6792C28.8737 47.1224 27.7577 48.2548 26.3264 48.7083C24.8951 49.1618 23.331 48.8787 22.1425 47.9507C21.9363 47.7899 21.6942 47.6817 21.4371 47.6354C21.1799 47.5892 20.9154 47.6062 20.6664 47.6851L16.1821 49.1061L14.8392 45.5864L19.5298 44.1001C20.0352 43.94 20.4293 43.5411 20.5832 43.033C21.0208 41.5897 22.1368 40.4574 23.5681 40.0038C24.9994 39.5503 26.5638 39.8333 27.7528 40.7612C27.9588 40.9221 28.2009 41.0303 28.458 41.0766C28.7151 41.1229 28.9796 41.1058 29.2285 41.0269L33.9191 39.5406L34.8484 43.1913ZM33.209 36.3846L29.0049 37.7168C27.0918 36.5446 24.7551 36.2466 22.5945 36.9312C20.4339 37.6158 18.6952 39.2052 17.8063 41.2653L13.6022 42.5974L9.9208 33.1993L30.8062 26.5814L33.209 36.3846Z" fill="#352517"/>
</g>
<defs>
<clipPath id="clip0_1905_6">
<rect width="33.5312" height="50.7625" fill="white" transform="translate(0 21.1287) rotate(-17.5818)"/>
</clipPath>
</defs>
</svg>
